<?xml version="1.0" encoding="UTF-8" standalone="no"?>
<!DOCTYPE svg PUBLIC "-//W3C//DTD SVG 1.1//EN" "http://www.w3.org/Graphics/SVG/1.1/DTD/svg11.dtd">
<svg width="100%" height="100%" viewBox="0 0 957 265" version="1.1" xmlns="http://www.w3.org/2000/svg" xmlns:xlink="http://www.w3.org/1999/xlink" xml:space="preserve" xmlns:serif="http://www.serif.com/" style="fill-rule:evenodd;clip-rule:evenodd;">
    <g transform="matrix(-1,0,0,1,1277.16,-305.972)">
        <path d="M1233,384C1245.72,389.69 1259.86,383.91 1266.7,374.7C1273.54,365.48 1283.58,350.55 1269.22,347.78C1254.86,345 1242.93,351.02 1229.02,352.02C1215.12,353.03 1202.18,355.87 1189.22,350.78C1176.27,345.68 1165.89,344.83 1153,341C1140.11,337.16 1127.1,336.07 1114.07,332.93C1101.04,329.78 1088.35,327.17 1075.01,324.99C1061.66,322.82 1049.66,319.8 1036,318C1022.34,316.2 1008,314.45 994,313C980,311.55 966.37,310.07 952,309C937.63,307.93 921.49,308.3 907,307C892.51,305.7 875.14,307.9 861,308C846.86,308.1 830.2,308.86 817.02,310.02C803.84,311.19 796.57,321.14 784.22,324.22C771.88,327.31 763.64,334.2 752.08,338.08C740.51,341.95 730.99,348.6 719.68,352.68C708.37,356.76 698.42,363.22 687.08,367.08C675.73,370.93 667.11,378.37 655.23,381.23C643.35,384.09 628.55,378.13 615.07,377.93C601.6,377.72 586.03,375.02 572,375C557.97,374.98 541.02,375.81 527.67,377.67C514.32,379.53 500.38,381.56 488.07,385.07C475.77,388.59 464.99,392.08 453.69,396.69C442.4,401.3 431.76,405.91 421.23,411.23C410.7,416.55 401.53,421.92 391.23,427.23C380.93,432.54 371.69,439.14 361.75,444.75C351.8,450.35 342.72,456.47 333,462C340.78,480.34 349.7,499.12 360,516C362.89,505.88 355.27,484.74 361.98,476.98C368.68,469.21 387.56,476.06 389,463C378.71,464.24 368.61,466.1 358,466C377.34,449.38 398.32,440.33 421.92,427.92C445.53,415.52 466.51,406.36 493.33,398.33C520.14,390.29 557.42,392.3 587,393C616.58,393.7 647.89,399.27 676,403C664.8,418.91 652.08,430.26 648,451C643.92,471.74 646.53,500.5 648,522C669.34,522.24 691.76,521.68 713,522C734.24,522.32 756.06,521.38 777,522C797.94,522.62 820.62,520.67 841,522C861.38,523.33 872.38,513.28 890,507C872.28,504.64 851.23,506.97 833,507C814.77,507.03 794.83,509.41 777,509C759.17,508.59 738.75,512.82 722,512C705.25,511.18 683.79,518.9 672.92,505.08C662.05,491.26 661.38,477.44 660,460C658.62,442.56 666.28,432.47 674.75,416.75C683.22,401.03 702.37,403.85 720,404C737.63,404.15 758.41,401.9 777,403C795.59,404.1 815.25,401.09 834,402C852.75,402.91 872.53,400.6 891,401C909.47,401.4 930.29,400.16 948,400C965.71,399.84 984.47,398.32 999.98,393.98C1015.48,389.63 1027.1,384.01 1039.77,375.77C1052.44,367.53 1061.9,361.24 1072,350C1038.62,332.07 1004.19,330.37 966,325C927.81,319.63 881.17,321.28 842,319C852.74,317.64 863.93,317.99 875,318C886.07,318.01 898.03,317.98 909,318C919.97,318.02 931.41,318.32 941.98,319.02C952.54,319.73 961.7,321.18 972,322C982.3,322.82 992.83,324.06 1002.93,325.07C1013.02,326.08 1022.08,328.93 1032,330C1041.92,331.07 1051.76,332.87 1061.33,334.67C1070.9,336.47 1079.65,337.75 1089,340C1098.34,342.25 1108.49,342.74 1117.78,345.22C1127.07,347.7 1136.59,348.78 1145.93,351.07C1155.26,353.36 1164.34,355.13 1173.78,357.22C1183.22,359.31 1190.71,361.22 1200.33,363.67C1209.94,366.12 1219.09,362.74 1229,361C1238.9,359.25 1248.32,358.1 1258.93,356.93C1269.54,355.75 1260.03,367.3 1254.75,372.75C1249.47,378.2 1239.64,381.25 1233,384M1039,362C944.66,397.64 836.53,389.41 734,387C739.35,382.17 748.72,383.15 758.67,384.33C768.62,385.51 768.22,378.82 765.02,369.98C761.83,361.13 755.54,359.59 746.98,361.98C738.41,364.36 732.26,365.35 724,368C736.47,368.06 763.91,354.73 763,379C750.72,379.08 733.72,374.18 721.78,377.78C709.83,381.38 697.3,388.72 686,382C703.13,374.36 717.02,366.93 734.69,359.69C752.37,352.46 767.85,347.2 786.23,339.23C804.61,331.26 830.64,334.11 852,334C873.36,333.89 899.23,335.96 920.22,337.78C941.21,339.59 964.15,340.97 984,345C1003.86,349.02 1023.34,351.21 1039,362Z" style="fill:white;fill-rule:nonzero;stroke:black;stroke-width:0.3px;"/>
    </g>
    <g transform="matrix(-1,0,0,1,1277.16,-305.972)">
        <path d="M1226,491C1218.15,441.53 1180.85,392.1 1126,393C1071.15,393.9 1029.25,449.31 1042,504C987.1,506.81 927.78,494.92 879,520C896.49,521.04 915.99,521.74 934,522C952.01,522.26 970.98,523.1 988.78,523.22C1006.58,523.34 1026.37,526.69 1044,525C1061.63,523.31 1066.36,537.12 1079.77,545.23C1093.18,553.34 1108.28,558.29 1124,558C1139.72,557.71 1154.13,553.01 1166.75,544.75C1179.38,536.5 1185.93,527.15 1193.23,514.23C1200.53,501.31 1202.29,482.78 1203,468C1207.45,485.24 1207.76,505.43 1201,522C1213.69,517.46 1225.55,512.18 1237.3,505.3C1249.06,498.43 1259.42,493.96 1264.22,480.22C1269.03,466.49 1272.72,453.11 1275,438C1277.28,422.89 1260.88,413.52 1263,398C1262.41,416.09 1259.91,438.18 1255.32,455.32C1250.74,472.46 1244.46,486.81 1226,491M1133,414C1178.69,420.53 1201.89,479.86 1172.7,515.7C1143.5,551.54 1084.25,547.8 1064.69,503.31C1045.14,458.81 1082.21,406.74 1133,414Z" style="fill:white;fill-rule:nonzero;stroke:black;stroke-width:0.3px;"/>
    </g>
    <g transform="matrix(-1,0,0,1,1277.16,-305.972)">
        <path d="M1035,406C965.18,410.45 894.1,412.07 826,422C880.52,422.43 934.39,420.22 989,421C982.96,434.64 968.07,443.76 957.75,454.75C947.44,465.74 934.62,474.21 925,486C963.92,463.49 1001.03,436.46 1035,406Z" style="fill:white;fill-rule:nonzero;stroke:black;stroke-width:0.3px;"/>
    </g>
    <g transform="matrix(-1,0,0,1,1277.16,-305.972)">
        <path d="M622,531C619.36,493.87 609.1,454.47 578.7,430.3C548.29,406.13 502.69,405.07 472.08,431.08C441.47,457.09 434.42,501.35 438,541C421.66,540.34 400.53,542.3 385.01,539.99C369.48,537.69 356.51,536.25 343.23,528.77C329.95,521.29 337.3,499.61 332,487C326.3,500.89 324.91,517.17 321,532C358.48,566 414.03,557.51 462,557C459.52,550.23 456.99,543.42 457,536C478.09,563.77 515.96,577.09 548.92,565.92C581.88,554.76 601.45,521.44 601,488C607.02,507.62 602.55,528.79 595,547C734.83,544.91 876.05,546.21 1012,530C881.75,529.36 752.27,531.73 622,531M533,432C576.71,438.25 599.16,495.29 571.23,529.23C543.3,563.17 487.92,560.63 468.23,518.77C448.54,476.91 484.62,425.09 533,432Z" style="fill:white;fill-rule:nonzero;stroke:black;stroke-width:0.3px;"/>
    </g>
    <g transform="matrix(-1,0,0,1,1277.16,-305.972)">
        <path d="M1133,414C1082.21,406.74 1045.14,458.81 1064.69,503.31C1084.25,547.8 1143.5,551.54 1172.7,515.7C1201.89,479.86 1178.69,420.53 1133,414M1133,421C1174.07,427.67 1192.34,481.1 1166.25,512.25C1140.15,543.39 1087.32,539.9 1070.23,499.77C1053.14,459.64 1088.18,413.72 1133,421Z" style="fill:white;fill-rule:nonzero;stroke:white;stroke-width:0.3px;"/>
    </g>
    <g transform="matrix(-1,0,0,1,1277.16,-305.972)">
        <path d="M533,432C484.62,425.09 448.54,476.91 468.23,518.77C487.92,560.63 543.3,563.17 571.23,529.23C599.16,495.29 576.71,438.25 533,432M533,439C571.43,445.24 590.74,496.14 565.08,526.08C539.43,556.02 490.48,551.12 474.08,513.92C457.67,476.73 489.95,432.01 533,439Z" style="fill:white;fill-rule:nonzero;stroke:white;stroke-width:0.3px;"/>
    </g>
    <g transform="matrix(-1,0,0,1,1277.16,-305.972)">
        <path d="M1233,384C1245.72,389.69 1259.86,383.91 1266.7,374.7C1273.54,365.48 1283.58,350.55 1269.22,347.78C1254.86,345 1242.93,351.02 1229.02,352.02C1215.12,353.03 1202.18,355.87 1189.22,350.78C1176.27,345.68 1165.89,344.83 1153,341C1140.11,337.16 1127.1,336.07 1114.07,332.93C1101.04,329.78 1088.35,327.17 1075.01,324.99C1061.66,322.82 1049.66,319.8 1036,318C1022.34,316.2 1008,314.45 994,313C980,311.55 966.37,310.07 952,309C937.63,307.93 921.49,308.3 907,307C892.51,305.7 875.14,307.9 861,308C846.86,308.1 830.2,308.86 817.02,310.02C803.84,311.19 796.57,321.14 784.22,324.22C771.88,327.31 763.64,334.2 752.08,338.08C740.51,341.95 730.99,348.6 719.68,352.68C708.37,356.76 698.42,363.22 687.08,367.08C675.73,370.93 667.11,378.37 655.23,381.23C643.35,384.09 628.55,378.13 615.07,377.93C601.6,377.72 586.03,375.02 572,375C557.97,374.98 541.02,375.81 527.67,377.67C514.32,379.53 500.38,381.56 488.07,385.07C475.77,388.59 464.99,392.08 453.69,396.69C442.4,401.3 431.76,405.91 421.23,411.23C410.7,416.55 401.53,421.92 391.23,427.23C380.93,432.54 371.69,439.14 361.75,444.75C351.8,450.35 342.72,456.47 333,462C340.78,480.34 349.7,499.12 360,516C362.89,505.88 355.27,484.74 361.98,476.98C368.68,469.21 387.56,476.06 389,463C378.71,464.24 368.61,466.1 358,466C377.34,449.38 398.32,440.33 421.92,427.92C445.53,415.52 466.51,406.36 493.33,398.33C520.14,390.29 557.42,392.3 587,393C616.58,393.7 647.89,399.27 676,403C664.8,418.91 652.08,430.26 648,451C643.92,471.74 646.53,500.5 648,522C669.34,522.24 691.76,521.68 713,522C734.24,522.32 756.06,521.38 777,522C797.94,522.62 820.62,520.67 841,522C861.38,523.33 872.38,513.28 890,507C872.28,504.64 851.23,506.97 833,507C814.77,507.03 794.83,509.41 777,509C759.17,508.59 738.75,512.82 722,512C705.25,511.18 683.79,518.9 672.92,505.08C662.05,491.26 661.38,477.44 660,460C658.62,442.56 666.28,432.47 674.75,416.75C683.22,401.03 702.37,403.85 720,404C737.63,404.15 758.41,401.9 777,403C795.59,404.1 815.25,401.09 834,402C852.75,402.91 872.53,400.6 891,401C909.47,401.4 930.29,400.16 948,400C965.71,399.84 984.47,398.32 999.98,393.98C1015.48,389.63 1027.1,384.01 1039.77,375.77C1052.44,367.53 1061.9,361.24 1072,350C1038.62,332.07 1004.19,330.37 966,325C927.81,319.63 881.17,321.28 842,319C852.74,317.64 863.93,317.99 875,318C886.07,318.01 898.03,317.98 909,318C919.97,318.02 931.41,318.32 941.98,319.02C952.54,319.73 961.7,321.18 972,322C982.3,322.82 992.83,324.06 1002.93,325.07C1013.02,326.08 1022.08,328.93 1032,330C1041.92,331.07 1051.76,332.87 1061.33,334.67C1070.9,336.47 1079.65,337.75 1089,340C1098.34,342.25 1108.49,342.74 1117.78,345.22C1127.07,347.7 1136.59,348.78 1145.93,351.07C1155.26,353.36 1164.34,355.13 1173.78,357.22C1183.22,359.31 1190.71,361.22 1200.33,363.67C1209.94,366.12 1219.09,362.74 1229,361C1238.9,359.25 1248.32,358.1 1258.93,356.93C1269.54,355.75 1260.03,367.3 1254.75,372.75C1249.47,378.2 1239.64,381.25 1233,384M1039,362C944.66,397.64 836.53,389.41 734,387C739.35,382.17 748.72,383.15 758.67,384.33C768.62,385.51 768.22,378.82 765.02,369.98C761.83,361.13 755.54,359.59 746.98,361.98C738.41,364.36 732.26,365.35 724,368C736.47,368.06 763.91,354.73 763,379C750.72,379.08 733.72,374.18 721.78,377.78C709.83,381.38 697.3,388.72 686,382C703.13,374.36 717.02,366.93 734.69,359.69C752.37,352.46 767.85,347.2 786.23,339.23C804.61,331.26 830.64,334.11 852,334C873.36,333.89 899.23,335.96 920.22,337.78C941.21,339.59 964.15,340.97 984,345C1003.86,349.02 1023.34,351.21 1039,362Z" style="fill:white;fill-rule:nonzero;"/>
    </g>
    <g transform="matrix(-1,0,0,1,1277.16,-305.972)">
        <path d="M1226,491C1218.15,441.53 1180.85,392.1 1126,393C1071.15,393.9 1029.25,449.31 1042,504C987.1,506.81 927.78,494.92 879,520C896.49,521.04 915.99,521.74 934,522C952.01,522.26 970.98,523.1 988.78,523.22C1006.58,523.34 1026.37,526.69 1044,525C1061.63,523.31 1066.36,537.12 1079.77,545.23C1093.18,553.34 1108.28,558.29 1124,558C1139.72,557.71 1154.13,553.01 1166.75,544.75C1179.38,536.5 1185.93,527.15 1193.23,514.23C1200.53,501.31 1202.29,482.78 1203,468C1207.45,485.24 1207.76,505.43 1201,522C1213.69,517.46 1225.55,512.18 1237.3,505.3C1249.06,498.43 1259.42,493.96 1264.22,480.22C1269.03,466.49 1272.72,453.11 1275,438C1277.28,422.89 1260.88,413.52 1263,398C1262.41,416.09 1259.91,438.18 1255.32,455.32C1250.74,472.46 1244.46,486.81 1226,491M1133,414C1178.69,420.53 1201.89,479.86 1172.7,515.7C1143.5,551.54 1084.25,547.8 1064.69,503.31C1045.14,458.81 1082.21,406.74 1133,414Z" style="fill:white;fill-rule:nonzero;"/>
    </g>
    <g transform="matrix(-1,0,0,1,1277.16,-305.972)">
        <path d="M1035,406C965.18,410.45 894.1,412.07 826,422C880.52,422.43 934.39,420.22 989,421C982.96,434.64 968.07,443.76 957.75,454.75C947.44,465.74 934.62,474.21 925,486C963.92,463.49 1001.03,436.46 1035,406Z" style="fill:white;fill-rule:nonzero;"/>
    </g>
    <g transform="matrix(-1,0,0,1,1277.16,-305.972)">
        <path d="M622,531C619.36,493.87 609.1,454.47 578.7,430.3C548.29,406.13 502.69,405.07 472.08,431.08C441.47,457.09 434.42,501.35 438,541C421.66,540.34 400.53,542.3 385.01,539.99C369.48,537.69 356.51,536.25 343.23,528.77C329.95,521.29 337.3,499.61 332,487C326.3,500.89 324.91,517.17 321,532C358.48,566 414.03,557.51 462,557C459.52,550.23 456.99,543.42 457,536C478.09,563.77 515.96,577.09 548.92,565.92C581.88,554.76 601.45,521.44 601,488C607.02,507.62 602.55,528.79 595,547C734.83,544.91 876.05,546.21 1012,530C881.75,529.36 752.27,531.73 622,531M533,432C576.71,438.25 599.16,495.29 571.23,529.23C543.3,563.17 487.92,560.63 468.23,518.77C448.54,476.91 484.62,425.09 533,432Z" style="fill:white;fill-rule:nonzero;"/>
    </g>
    <g transform="matrix(-1,0,0,1,1277.16,-305.972)">
        <path d="M1133,414C1082.21,406.74 1045.14,458.81 1064.69,503.31C1084.25,547.8 1143.5,551.54 1172.7,515.7C1201.89,479.86 1178.69,420.53 1133,414M1133,421C1174.07,427.67 1192.34,481.1 1166.25,512.25C1140.15,543.39 1087.32,539.9 1070.23,499.77C1053.14,459.64 1088.18,413.72 1133,421Z" style="fill:white;fill-rule:nonzero;"/>
    </g>
    <g transform="matrix(-1,0,0,1,1277.16,-305.972)">
        <path d="M533,432C484.62,425.09 448.54,476.91 468.23,518.77C487.92,560.63 543.3,563.17 571.23,529.23C599.16,495.29 576.71,438.25 533,432M533,439C571.43,445.24 590.74,496.14 565.08,526.08C539.43,556.02 490.48,551.12 474.08,513.92C457.67,476.73 489.95,432.01 533,439Z" style="fill:white;fill-rule:nonzero;"/>
    </g>
</svg>
